<mxfile host="65bd71144e">
    <diagram id="EhiiXvT2ltVXRhPsyauH" name="Page-1">
        <mxGraphModel dx="764" dy="563" grid="1" gridSize="10" guides="1" tooltips="1" connect="1" arrows="1" fold="1" page="1" pageScale="1" pageWidth="850" pageHeight="1100" math="0" shadow="0">
            <root>
                <mxCell id="0"/>
                <mxCell id="1" parent="0"/>
                <mxCell id="6" style="edgeStyle=none;html=1;entryX=0;entryY=0.5;entryDx=0;entryDy=0;fontSize=18;" edge="1" parent="1" source="3" target="5">
                    <mxGeometry relative="1" as="geometry"/>
                </mxCell>
                <mxCell id="3" value="movies_controller" style="rounded=0;whiteSpace=wrap;html=1;spacing=2;fontSize=18;" vertex="1" parent="1">
                    <mxGeometry x="20" y="170" width="180" height="60" as="geometry"/>
                </mxCell>
                <mxCell id="5" value="tmdb_service" style="rounded=0;whiteSpace=wrap;html=1;fontSize=18;" vertex="1" parent="1">
                    <mxGeometry x="400" y="170" width="170" height="60" as="geometry"/>
                </mxCell>
            </root>
        </mxGraphModel>
    </diagram>
</mxfile>